<svg width="73" height="72" viewBox="0 0 73 72" fill="none" xmlns="http://www.w3.org/2000/svg">
<g clip-path="url(#clip0_3_1140)">
<g clip-path="url(#clip1_3_1140)">
<g clip-path="url(#clip2_3_1140)">
<path d="M66.6715 37.7439C66.4546 36.614 65.4664 35.7969 64.3159 35.7963H61.9987L61.8283 34.7751C61.6583 33.7494 60.8502 32.948 59.8231 32.7867C59.5951 32.7507 59.3647 32.7267 59.1379 32.6955C59.5309 30.8609 59.2044 28.9455 58.2259 27.3447C58.7429 26.0036 58.6464 24.5034 57.9619 23.2397C57.2774 21.9759 56.0736 21.0755 54.6679 20.7759C53.7692 15.9662 49.5851 12.4701 44.6923 12.4406C44.5723 12.4406 44.4655 12.4563 44.3515 12.4599C43.5697 11.2321 42.2808 10.4172 40.8364 10.2376C39.3919 10.0579 37.9427 10.5322 36.8839 11.5311C35.5502 10.6641 33.9939 10.2019 32.4031 10.2003C29.84 10.2107 27.4243 11.4004 25.8535 13.4259C24.1094 12.9172 22.2285 13.2295 20.7423 14.2745C19.2561 15.3195 18.3259 16.9837 18.2143 18.7971C16.3823 19.5671 15.1903 21.3602 15.1891 23.3475C15.1929 23.6919 15.2331 24.035 15.3091 24.3711C13.689 26.8134 13.2656 29.8594 14.1583 32.6511C13.8367 32.6954 13.5079 32.7351 13.1983 32.7807C12.1659 32.9364 11.3506 33.7382 11.1775 34.7679L11.0071 35.7927H8.68391C7.53533 35.7934 6.54832 36.6079 6.32951 37.7355L1.07471 64.7139C0.869494 65.7704 1.14778 66.8634 1.83329 67.6931C2.5188 68.5229 3.53961 69.0024 4.61591 69.0003H29.6407C30.6343 70.6395 33.6535 71.4003 36.4999 71.4003C39.3163 71.4003 42.3067 70.6575 43.3291 69.0003H68.3839C69.46 69.0023 70.4805 68.523 71.166 67.6935C71.8514 66.864 72.1299 65.7714 71.9251 64.7151L66.6715 37.7439ZM18.8179 25.5195C17.8436 24.9336 17.3786 23.7707 17.6804 22.6746C17.9822 21.5785 18.977 20.8175 20.1139 20.8131C20.9096 20.8107 21.6584 21.1889 22.1287 21.8307C22.3842 22.1749 22.804 22.3567 23.2299 22.3076C23.6558 22.2584 24.0231 21.9858 24.1935 21.5924C24.3639 21.1989 24.3114 20.7445 24.0559 20.4003C23.2411 19.3112 22.0062 18.6145 20.6527 18.4803C21.0105 16.7997 22.4925 15.5966 24.2107 15.5919C24.3571 15.5993 24.503 15.6153 24.6475 15.6399C24.551 15.8859 24.4669 16.1366 24.3955 16.3911C24.2462 17.0263 24.6318 17.6644 25.2636 17.8276C25.8954 17.9908 26.5418 17.6191 26.7187 16.9911C26.8552 16.4636 27.0648 15.9579 27.3415 15.4886C28.406 13.7054 30.3263 12.6095 32.4031 12.6003C33.5334 12.6053 34.6378 12.9388 35.5819 13.5603C35.4021 14.0656 35.3068 14.5971 35.2999 15.1335C35.2999 15.7962 35.8372 16.3335 36.4999 16.3335C37.1627 16.3335 37.6999 15.7962 37.6999 15.1335C37.6999 13.7394 38.83 12.6093 40.2241 12.6093C41.6182 12.6093 42.7483 13.7394 42.7483 15.1335C42.7483 15.7962 43.2856 16.3335 43.9483 16.3335C44.6111 16.3335 45.1483 15.7962 45.1483 15.1335C45.1483 15.0411 45.1255 14.9535 45.1207 14.8611C48.5567 15.0731 51.4461 17.5155 52.2271 20.8682C51.6674 21.0312 51.1414 21.2934 50.6743 21.6423C50.3313 21.8995 50.1516 22.3201 50.2029 22.7458C50.2542 23.1714 50.5287 23.5374 50.9229 23.7058C51.3172 23.8742 51.7713 23.8195 52.1143 23.5623C53.0732 22.8523 54.3979 22.9089 55.2927 23.6981C56.1876 24.4873 56.4093 25.7945 55.8247 26.8347C55.5635 27.2939 55.1665 27.6611 54.6883 27.8859C54.1868 28.1287 53.9184 28.6847 54.0403 29.2284C54.1622 29.7721 54.6423 30.1604 55.1995 30.1659C55.3755 30.1661 55.5493 30.1272 55.7083 30.0518C56.0263 29.8977 56.3269 29.7099 56.6047 29.4915C57.225 31.2549 56.836 33.2163 55.5895 34.6095L55.5607 34.6395C53.9974 36.333 51.5035 36.7907 49.4407 35.7627C49.2387 35.6559 49.0446 35.5348 48.8599 35.4003C49.7438 34.1611 49.8659 32.5334 49.1767 31.1763C48.9838 30.7932 48.6012 30.5422 48.173 30.5177C47.7448 30.4932 47.336 30.6991 47.1008 31.0577C46.8655 31.4163 46.8394 31.8732 47.0323 32.2563C47.4269 33.0494 47.1808 34.0119 46.4539 34.5183C46.0271 34.8024 45.4997 34.8923 45.0028 34.7656C44.506 34.6388 44.0861 34.3074 43.8475 33.8535C43.6557 33.47 43.2738 33.218 42.8458 33.1924C42.4177 33.1668 42.0085 33.3715 41.7724 33.7294C41.5362 34.0873 41.5089 34.544 41.7007 34.9275C42.4045 36.3481 43.8545 37.2453 45.4399 37.2411C45.9561 37.2376 46.4669 37.137 46.9459 36.9447C47.3745 37.3199 47.8467 37.6422 48.3523 37.9047C50.0626 38.7912 52.0513 38.975 53.8951 38.4171C52.7092 40.0363 50.9344 41.1245 48.9535 41.4471C48.3372 41.5474 47.9009 42.1035 47.9501 42.726C47.9992 43.3484 48.5175 43.8292 49.1419 43.8315C49.2058 43.8314 49.2696 43.8266 49.3327 43.8171C50.0634 43.6906 50.7775 43.482 51.4615 43.1954C51.8312 43.849 52.1312 44.5396 52.3567 45.2559C52.398 45.3809 52.4191 45.5118 52.4191 45.6435C52.4188 46.1621 52.109 46.6305 51.6319 46.8339C51.0799 47.0473 50.4533 46.8789 50.0827 46.4174C49.1534 45.3261 47.9364 44.5175 46.5703 44.0835C43.9771 43.2147 42.9763 42.4383 42.5515 41.5935C43.1741 41.5158 43.7894 41.3873 44.3911 41.2095C44.801 41.0834 45.1124 40.7483 45.2082 40.3303C45.304 39.9123 45.1695 39.475 44.8554 39.1831C44.5413 38.8912 44.0954 38.789 43.6855 38.9151C43.0122 39.1216 42.3171 39.2493 41.6143 39.2955C40.2603 39.4013 38.9 39.196 37.6375 38.6955C37.1635 38.5106 36.6244 38.6448 36.2923 39.0303C34.5452 41.0372 31.5549 41.3783 29.4006 39.8164C27.2463 38.2545 26.6408 35.3064 28.0051 33.0219C28.2261 32.6529 28.2335 32.1941 28.0245 31.8183C27.8155 31.4424 27.4219 31.2066 26.9919 31.1997C26.5619 31.1928 26.1609 31.4157 25.9399 31.7847C25.6536 32.2719 25.4233 32.79 25.2535 33.3291C24.3085 33.2793 23.5634 32.5064 23.5483 31.5602V31.5303C23.5477 31.2136 23.4206 30.9103 23.1952 30.6879C22.9698 30.4655 22.6649 30.3423 22.3483 30.3459C21.6827 30.3524 21.147 30.8946 21.1483 31.5602C21.1537 33.6884 22.7585 35.4721 24.8743 35.7015C24.8786 36.1037 24.9151 36.505 24.9835 36.9015C22.3042 37.4812 19.5252 36.5181 17.7792 34.4047C16.0332 32.2913 15.6118 29.3805 16.6867 26.8587C16.9552 27.1303 17.2549 27.3691 17.5795 27.5703C18.1464 27.9023 18.8749 27.7168 19.2139 27.1541C19.553 26.5913 19.3764 25.8606 18.8179 25.5146V25.5195ZM13.5379 35.1591C14.0911 35.0775 14.6623 35.0055 15.2299 34.9311C17.4486 38.4766 21.6921 40.1982 25.7539 39.2007C26.8453 41.2721 28.8396 42.7166 31.148 43.1078C33.4564 43.4991 35.8153 42.7923 37.5283 41.1963C38.3438 41.4395 39.1837 41.5916 40.0327 41.6499C40.6123 43.8483 42.2875 45.1803 45.8071 46.3599C46.7559 46.6573 47.6024 47.2148 48.2503 47.9691C48.9707 48.8257 50.0303 49.3235 51.1495 49.3311C51.639 49.3309 52.1234 49.2321 52.5739 49.0407C53.9342 48.4593 54.8166 47.1227 54.8167 45.6435C54.8178 45.2577 54.7562 44.8743 54.6343 44.5083C54.3645 43.6604 54.009 42.8422 53.5735 42.0663C55.6141 40.5993 57.0356 38.4254 57.5611 35.9679C57.8167 35.6642 58.0478 35.3408 58.2523 35.0007C58.6543 35.0523 59.0563 35.0979 59.4607 35.1651L63.7927 61.2219C55.3249 58.3943 46.1677 58.3943 37.6999 61.2219V46.2003C37.6999 45.5375 37.1627 45.0003 36.4999 45.0003C35.8372 45.0003 35.2999 45.5375 35.2999 46.2003V61.2267C26.8331 58.3965 17.676 58.3931 9.20711 61.2171L13.5379 35.1591ZM3.68111 66.1587C3.45436 65.8848 3.36193 65.5238 3.42911 65.1747L8.68391 38.1963H10.6039L6.83831 60.8271C6.70586 61.6508 7.00917 62.4844 7.63999 63.0304C8.27081 63.5764 9.13929 63.757 9.93551 63.5079C16.3327 61.4353 23.1481 61.0028 29.7559 62.2503L29.3983 66.6003H4.61591C4.25389 66.6005 3.91083 66.4384 3.68111 66.1587ZM36.4999 69.0003C33.6091 69.0003 31.9507 68.1459 31.7071 67.7655L32.1199 62.7854C33.4394 63.114 34.7307 63.547 35.9815 64.0803C36.1433 64.1582 36.3204 64.1992 36.4999 64.2003C36.68 64.2 36.8576 64.159 37.0195 64.0803C38.2696 63.5438 39.5605 63.108 40.8799 62.7771L41.2927 67.7643C41.0491 68.1459 39.3907 69.0003 36.4999 69.0003ZM69.3187 66.1587C69.089 66.4384 68.7459 66.6005 68.3839 66.6003H43.6051L43.2451 62.2419C49.8566 60.997 56.6749 61.4332 63.0739 63.5103C63.8699 63.7562 64.7365 63.573 65.3649 63.0259C65.9933 62.4789 66.2942 61.6458 66.1603 60.8235L62.3983 38.1975H64.3183L69.5743 65.1735C69.6409 65.5236 69.5471 65.8851 69.3187 66.1587Z" fill="#2DC071"/>
<path d="M32.523 27.822C32.0318 28.2664 31.9936 29.0249 32.4378 29.5164C33.4558 30.6403 34.8011 31.416 36.2838 31.734C35.6123 32.6802 34.5233 33.2417 33.363 33.24C32.7003 33.24 32.163 33.7772 32.163 34.44C32.163 35.1027 32.7003 35.64 33.363 35.64C35.8472 35.6499 38.0762 34.1156 38.9538 31.7916C41.9377 31.2971 44.3 29.0003 44.8782 26.0316C44.9676 25.6069 44.8207 25.1671 44.4941 24.8814C44.1676 24.5957 43.7122 24.5085 43.3032 24.6534C42.8941 24.7983 42.5952 25.1528 42.5214 25.5804C42.2861 26.818 41.572 27.9129 40.5342 28.6272C38.5377 29.9718 35.8601 29.6666 34.2174 27.9072C33.7729 27.4159 33.0145 27.3778 32.523 27.822Z" fill="#2DC071"/>
<path d="M28.3398 26.5203C29.0026 26.5203 29.5398 25.983 29.5398 25.3203C29.5398 24.4928 29.8685 23.6992 30.4537 23.1141C31.0388 22.529 31.8324 22.2003 32.6598 22.2003C33.3226 22.2003 33.8598 21.663 33.8598 21.0003C33.8598 20.3376 33.3226 19.8003 32.6598 19.8003C29.6126 19.8036 27.1431 22.2731 27.1398 25.3203C27.1398 25.6386 27.2663 25.9438 27.4913 26.1688C27.7163 26.3939 28.0216 26.5203 28.3398 26.5203Z" fill="#2DC071"/>
<path d="M37.6999 3.0001V1.8001C37.6999 1.13736 37.1626 0.600098 36.4999 0.600098C35.8371 0.600098 35.2999 1.13736 35.2999 1.8001V3.0001C35.2999 3.66284 35.8371 4.2001 36.4999 4.2001C37.1626 4.2001 37.6999 3.66284 37.6999 3.0001Z" fill="#2DC071"/>
<path d="M56.192 9.2111L54.992 10.4111C54.68 10.7124 54.5549 11.1586 54.6647 11.5781C54.7746 11.9977 55.1022 12.3253 55.5218 12.4351C55.9413 12.545 56.3875 12.4198 56.6888 12.1079L57.8888 10.9079C58.2007 10.6066 58.3259 10.1604 58.216 9.74089C58.1062 9.32134 57.7786 8.99368 57.359 8.88387C56.9394 8.77405 56.4933 8.89915 56.192 9.2111Z" fill="#2DC071"/>
<path d="M17.1595 12.4595C17.6448 12.4594 18.0822 12.167 18.2679 11.7187C18.4536 11.2703 18.351 10.7543 18.0079 10.4111L16.8079 9.2111C16.5066 8.89915 16.0604 8.77405 15.6409 8.88387C15.2213 8.99368 14.8937 9.32134 14.7839 9.74089C14.674 10.1604 14.7991 10.6066 15.1111 10.9079L16.3111 12.1079C16.5361 12.333 16.8413 12.4594 17.1595 12.4595Z" fill="#2DC071"/>
<path d="M26.3972 7.41032C26.5549 7.40998 26.711 7.37901 26.8568 7.31912C27.1509 7.19729 27.3846 6.96357 27.5063 6.66942C27.6281 6.37527 27.628 6.04479 27.506 5.75072L26.1272 2.42432C25.9693 2.01917 25.6045 1.73117 25.1738 1.67152C24.743 1.61187 24.3137 1.78992 24.0516 2.1369C23.7895 2.48388 23.7356 2.94551 23.9108 3.34352L25.2884 6.66992C25.4743 7.11823 25.9119 7.41044 26.3972 7.41032Z" fill="#2DC071"/>
<path d="M48.4399 1.77505C47.8279 1.52185 47.1265 1.81242 46.8727 2.42425L45.4939 5.75065C45.3716 6.04485 45.3713 6.37563 45.4931 6.67007C45.6148 6.96451 45.8487 7.19842 46.1431 7.32025C46.289 7.38014 46.4451 7.41111 46.6027 7.41145C47.0881 7.41157 47.5257 7.11936 47.7115 6.67105L49.0891 3.34465C49.2115 3.05044 49.2118 2.71966 49.09 2.42523C48.9682 2.13079 48.7344 1.89687 48.4399 1.77505Z" fill="#2DC071"/>
<path d="M60.8899 21.6988C61.0477 21.6985 61.2039 21.6671 61.3495 21.6064L64.6747 20.2288C65.0709 20.0648 65.3494 19.7019 65.4055 19.2769C65.4615 18.8518 65.2866 18.4291 64.9465 18.1681C64.6064 17.907 64.1529 17.8472 63.7567 18.0112L60.4303 19.3888C59.8995 19.6068 59.5974 20.1701 59.7093 20.7329C59.8213 21.2958 60.3161 21.7005 60.8899 21.6988Z" fill="#2DC071"/>
<path d="M11.6503 21.6062C12.2627 21.86 12.9649 21.5694 13.2187 20.957C13.4725 20.3446 13.1819 19.6424 12.5695 19.3886L9.2431 18.011C8.63073 17.7575 7.9288 18.0484 7.6753 18.6608C7.4218 19.2732 7.71273 19.9751 8.3251 20.2286L11.6503 21.6062Z" fill="#2DC071"/>
</g>
</g>
</g>
<defs>
<clipPath id="clip0_3_1140">
<rect width="72" height="72" fill="white" transform="translate(0.5)"/>
</clipPath>
<clipPath id="clip1_3_1140">
<rect width="70.9823" height="70.8" fill="white" transform="translate(1.00864 0.600098)"/>
</clipPath>
<clipPath id="clip2_3_1140">
<rect width="70.9823" height="70.8" fill="white" transform="translate(1.00864 0.600098)"/>
</clipPath>
</defs>
</svg>
